<mxfile host="app.diagrams.net" modified="2024-05-31T06:22:34.966Z" agent="Mozilla/5.0 (Windows NT 10.0; Win64; x64) AppleWebKit/537.36 (KHTML, like Gecko) Chrome/125.0.0.0 Safari/537.36 Edg/125.0.0.0" version="24.4.10" etag="8twQ6h-8TL5UmrK9zaMu" type="github">
  <diagram name="Page-1" id="3uIpIClyg6CI4aCSELqI">
    <mxGraphModel>
      <root>
        <mxCell id="0" />
        <mxCell id="1" parent="0" />
      </root>
    </mxGraphModel>
  </diagram>
</mxfile>
